<svg width="1240" height="714" viewBox="0 0 1240 714" fill="none" xmlns="http://www.w3.org/2000/svg">
<g style="mix-blend-mode:overlay">
<g style="mix-blend-mode:overlay">
<path d="M1513.35 630.66L1315.76 677.14L1048.83 729.61L861.09 819.8L791.48 850.47" stroke="#F0F1F1" stroke-linecap="round" stroke-linejoin="round"/>
</g>
<g style="mix-blend-mode:overlay">
<path d="M1513.35 512.77L1355.69 557.39L1126.5 613.59L969.24 691.09L734.07 728.63L551.57 795.93L386.43 850.47" stroke="#F0F1F1" stroke-linecap="round" stroke-linejoin="round"/>
</g>
<g style="mix-blend-mode:overlay">
<path d="M1513.35 284.65L1392.86 335.45L1374.72 343.1L1248.62 391.63L1230.28 398.69L1105.72 441.76L1081.65 450.08L957.97 488.2L934 495.59L788.39 534.53L650.33 565.92L520.73 589.56L404.06 605.46L365.31 612.49L296.79 624.92L260.17 630.17L188.85 640.38L81.25 651.18L4.55003 639.18L-0.339966 637.76" stroke="#F0F1F1" stroke-linecap="round" stroke-linejoin="round"/>
</g>
<g style="mix-blend-mode:overlay">
<path d="M1513.35 421.48L1378.3 465.92L1182.17 523.22L985.23 573.09L794.32 613.87L612.37 644.85L445.94 665.55L296.65 676.19L168.8 677.65L61.95 670.85L-0.339966 675.8" stroke="#F0F1F1" stroke-linecap="round" stroke-linejoin="round"/>
</g>
<g style="mix-blend-mode:overlay">
<path d="M1513.35 347.41L1384.63 395.76L1215.26 452.92L1044.8 504.09L875.12 548.26L712.46 584.1L558.66 611.17L419.2 629.28L294.82 638.72L188.85 640.38L100.52 635.05L4.55003 639.18L-0.339966 639.16" stroke="#F0F1F1" stroke-linecap="round" stroke-linejoin="round"/>
</g>
<g style="mix-blend-mode:overlay">
<path d="M1513.35 173.91L1430.71 220.55L1422.17 225.37L1333.33 271.81L1320.46 278.53L1227.39 323.77L1215.25 329.67L1123.59 370.43L1105.44 378.51L1013.17 416.18L995.14 423.54L910.33 454.67L883.76 464.42L803.84 490.79L775.71 500.07L711.23 518.61L670.63 530.29L618.64 543.19L595.88 548.84L572.5 554.64L511.11 568.82L509.73 569.13L487.23 574.33L457.73 580.03L402.87 590.63L398.1 591.55L390.97 592.62L355.39 597.97L305.28 605.5L212.19 615.89L119.67 622.08L55.91 612.49L7.17003 598.65L-0.339966 595.06" stroke="#F0F1F1" stroke-linecap="round" stroke-linejoin="round"/>
</g>
<g style="mix-blend-mode:overlay">
<path d="M1513.35 666.57L1438.42 721.28L1144.93 777.31L1007.83 850.47" stroke="#F0F1F1" stroke-linecap="round" stroke-linejoin="round"/>
</g>
<g style="mix-blend-mode:overlay">
<path d="M1513.35 255.15L1430.68 293.66L1298.51 350.05L1180.97 395.87L1162.91 402.91L1121.68 417.35L1048.31 443.04L1024.07 451.52L911.22 486.81L887.05 494.37L783.61 522.45L752.52 530.89L625.6 560.28L506.78 582.4L402.01 597.11L400.09 597.38L360.04 604.02L300.37 613.93L263.44 618.64L200.2 626.71L100.52 635.05L30.72 624.29L-0.339966 615.31" stroke="#F0F1F1" stroke-linecap="round" stroke-linejoin="round"/>
</g>
<g style="mix-blend-mode:overlay">
<path d="M1513.35 146.9L1448.68 186.35L1439.45 191.99L1357.58 238.98L1349.36 243.69L1266.02 287.96L1253.29 294.72L1166.53 337.65L1154.62 343.54L1070.57 381.58L1052.11 389.94L968.44 424.78L949.78 432.55L875.73 460.27L846.79 471.11L780.13 493.61L747.3 504.69L702.22 517.96L691.46 521.13L650.64 533.15L632.48 537.79L560.5 556.17L480.84 573.15L473.53 574.3L406.49 585.57L405.9 585.67L403.58 585.31L401.86 585.58L398.59 586.1L398.36 586.12L390.97 586.88L381.61 587.84L380.13 587.99L379.89 588.15L379.63 588.31L370.81 589.34L358.59 590.48L345.12 591.58L345.08 591.59L343.1 591.79L342.29 592.28L339.88 592.95L331.33 594.09L317.08 594.79L300.87 594.95L293.16 595.37L285.63 596.15L249.57 598.22L191.6 596.25L178.9 594.77L144.46 590.77L106.92 581.99L89.75 578.28L55.66 570.9L9.67003 557.01L-0.339966 553.07" stroke="#F0F1F1" stroke-linecap="round" stroke-linejoin="round"/>
</g>
<g style="mix-blend-mode:overlay">
<path d="M1377.6 162.17L1314.95 205.85L1309.89 209.37L1254.71 245.2L1237.11 256.62L1185.19 288.46L1162.28 302.51L1096.05 340.02L1083.38 347.2L1016.1 382.86L1003.8 389.37L945.33 417.68L930.06 425.07L921.83 429.06L875.04 449.99L871.46 451.6L841.02 465.22" stroke="#F0F1F1" stroke-linecap="round" stroke-linejoin="round"/>
</g>
<g style="mix-blend-mode:overlay">
<path d="M397.73 587.84L381.69 589.38L377.2 590.21L370.2 591.52L349.43 593.38L331.33 594.09L317.92 595.51L293.22 597.45L290.52 597.66L273.18 599.02L237.15 601.84L156.97 604.4L80.02 603.48L7.17003 598.65L-0.339966 597.75" stroke="#F0F1F1" stroke-linecap="round" stroke-linejoin="round"/>
</g>
<g style="mix-blend-mode:overlay">
<path d="M1513.35 90.3898L1448.42 136.79L1382.14 181.84L1376.76 185.5L1299.47 234.51L1227.01 277.84L1219.47 282.34L1147.46 322.15L1134.87 329.11L1099.3 358.14L1052.11 389.94L995.14 423.54L925.42 458.86L845.23 494.82L752.52 530.89L650.33 565.92L537.92 599.06L419.2 629.28L381.07 637.36L294.69 655.66L168.8 677.65L42.72 694.55L-0.339966 687.74" stroke="#F0F1F1" stroke-linecap="round" stroke-linejoin="round"/>
</g>
<g style="mix-blend-mode:overlay">
<path d="M1311.61 188.13L1252.69 230.38L1248.01 233.75L1196.29 268.26L1179.84 279.24L1131.96 309.44L1117.06 318.85L1110.14 323.21L1060.46 352.11L1039.99 364.02L1036.77 365.89L997.69 387.19L965.13 404.93L963.07 406.06L926.46 423.9L918.16 427.8" stroke="#F0F1F1" stroke-linecap="round" stroke-linejoin="round"/>
</g>
<g style="mix-blend-mode:overlay">
<path d="M1513.35 119.12L1448.55 162.23L1386.51 200.76L1366.91 212.93L1289.69 258.11L1281.82 262.71L1204.1 304.77L1191.46 311.61L1111.09 352.19L1099.3 358.14L1023.04 393.35L1003.92 402.19L929.32 433.94L909.23 442.49L847.82 466L832.52 471.86L829.31 473.08L814.14 478.89L767.35 495.08L762.91 496.62L722.55 510.58L713.25 513.39" stroke="#F0F1F1" stroke-linecap="round" stroke-linejoin="round"/>
</g>
<g style="mix-blend-mode:overlay">
<path d="M1513.35 704.1L1438.42 721.28L1263.74 836.87L1168.95 850.47" stroke="#F0F1F1" stroke-linecap="round" stroke-linejoin="round"/>
</g>
<g style="mix-blend-mode:overlay">
<path d="M1513.35 285.26L1457.53 337.82L1303.99 396.2L1169.2 442.24L1145.21 450.44L986.43 498.72L829.13 540.21L679.17 573.76L537.92 599.06L410.33 616.01L296.79 624.92L200.2 626.71L119.67 622.08L30.72 624.29L-0.339966 623.52" stroke="#F0F1F1" stroke-linecap="round" stroke-linejoin="round"/>
</g>
<g style="mix-blend-mode:overlay">
<path d="M324.95 593.65L316.29 594.18L300.87 594.95L293.16 595.37L285.54 596.04L271.42 596.89L249.57 598.22L174.74 599.24L102.93 597L34.99 591.07L-0.339966 586.01" stroke="#F0F1F1" stroke-linecap="round" stroke-linejoin="round"/>
</g>
<g style="mix-blend-mode:overlay">
<path d="M261.53 596.64L254.97 596.61L191.6 596.25L189.38 596.14L124.47 592.83L60.97 585.92L2.67003 576.17L-0.339966 575.44" stroke="#F0F1F1" stroke-linecap="round" stroke-linejoin="round"/>
</g>
<g style="mix-blend-mode:overlay">
<path d="M1248.34 198.16L1194.6 241.51L1160.28 267.9L1143.27 280.99L1139.38 283.98L1107.57 306.62L1088.12 320.47L1080.3 326.03L1040.5 352.8L1027 361.88L1020.25 366.41L983.38 389.15L981.79 390.13L961.04 402.92L957 405.41L947.86 410.68" stroke="#F0F1F1" stroke-linecap="round" stroke-linejoin="round"/>
</g>
<g style="mix-blend-mode:overlay">
<path d="M147.53 135.34L79.54 137.08L37.37 139.27L18.38 140.26L1.28003 141.63L-0.339966 142.24" stroke="#F0F1F1" stroke-linecap="round" stroke-linejoin="round"/>
</g>
<g style="mix-blend-mode:overlay">
<path d="M1193.67 227.01L1148.72 264.78L1143.75 268.96L1125.55 283.52L1105.08 299.9L1095.99 307.17L1092.56 309.92L1067.82 328.15L1045.58 344.54L1037.68 350.37L1005.4 372.79L1002.37 374.89L990.13 383.4L981.89 389.12L968.32 397.72" stroke="#F0F1F1" stroke-linecap="round" stroke-linejoin="round"/>
</g>
<g style="mix-blend-mode:overlay">
<path d="M1513.35 544.11L1461.75 582.15L1213.5 641.85L969.24 691.09L791.19 769.55L596.21 847.59L543.19 850.47" stroke="#F0F1F1" stroke-linecap="round" stroke-linejoin="round"/>
</g>
<g style="mix-blend-mode:overlay">
<path d="M207.3 595.26L199.95 594.74L178.28 593.19L144.46 590.77L84.98 582.97L30.37 572.51L-0.339966 564.13" stroke="#F0F1F1" stroke-linecap="round" stroke-linejoin="round"/>
</g>
<g style="mix-blend-mode:overlay">
<path d="M208.36 134.05L146.75 134.31L91.39 136.07" stroke="#F0F1F1" stroke-linecap="round" stroke-linejoin="round"/>
</g>
<g style="mix-blend-mode:overlay">
<path d="M1144.26 256.41L1102.53 293.03L1098 297L1082.15 310.2L1061.65 327.27L1053.39 334.15L1050.51 336.54L1019.73 360L1018.27 361.11L1009.03 368.16L999.39 375.5" stroke="#F0F1F1" stroke-linecap="round" stroke-linejoin="round"/>
</g>
<g style="mix-blend-mode:overlay">
<path d="M1513.35 314.56L1457.53 337.82L1384.63 395.76L1292.58 457.93L1182.17 523.22L1051.21 591.01L902.02 659.83L734.07 728.63L516.18 753.57L319 766L148.46 766.73L4.90003 756.92L-0.339966 757.65" stroke="#F0F1F1" stroke-linecap="round" stroke-linejoin="round"/>
</g>
<g style="mix-blend-mode:overlay">
<path d="M1100.09 286.45L1074.69 309.71L1061.27 322L1057.14 325.78L1025.25 352.29L1019.81 356.01L1011.13 364.06" stroke="#F0F1F1" stroke-linecap="round" stroke-linejoin="round"/>
</g>
<g style="mix-blend-mode:overlay">
<path d="M1500.93 -0.470215L1458.98 39.0098L1412.32 81.6598L1361.27 125.71L1308.15 169.81L1250.56 214.58L1206.35 247.35L1191.16 258.61L1142.82 291.89L1127.61 302.36L1083.71 330.93L1062.88 344.48L1018.45 371.09L1009.7 376.33L996.94 383.97L994.78 385.27L966.39 401.18L952.9 408.75L935.69 418.39L926.49 423.55L917.87 427.96L883.76 445.33L836.56 467.01L781.35 489.21L713.25 513.39L633.55 537.46L560.5 556.17L476.13 573.76L406.74 584.8L406.55 584.83L406.42 584.85L406.36 584.87L405.9 585.67L397.73 587.84L381.72 589.98L377.2 590.21L358.7 591.17L345.21 592.33L342.29 592.28L331.06 593.03L324.95 593.65L317.08 594.79L285.63 596.15L270.11 596.24L261.53 596.64L254.91 596.48L239.86 596.09L225.53 595.73L219.97 595.59L214.63 595.45L212.13 595.22L199.75 594.27L188.23 593.27L181.21 592.54L180.67 592.49L177.84 592.06L175.62 591.65L162.69 590.61L158.12 589.73L153.03 588.31L149.33 586.84L146.96 586.41L146.51 586.33L143.37 585.37L140.98 583.81L137.05 582.15L136.08 581.74L135.54 581.33L133.56 580.6L131.71 580.41L129.47 580.53L122.48 579.28L98.73 572.88L86.21 568.34L58.08 558.13L49.3 554.06L22.59 541.67L16.77 525.53L16.45 509.24L21.19 492.56L11.24 471.27L6.27003 449.56L5.25003 428.1L8.25003 406.84L14.06 386.27L22.6 366.34L32.65 347.4L44.02 329.34L55.57 312.41L67.11 296.48L77.59 281.68L86.79 267.91L93.82 255.23L98.44 243.56L143.75 233.17L186.62 224.01L226.98 215.93L264.82 208.8L300.24 202.45L333.02 196.82L363.41 191.74L390.97 187.19L416.05 183.03L437.96 179.25L457.12 175.72L472.59 172.48L484.85 169.4L492.71 166.54L497.57 163.21L509.53 166.89L518.54 170.73L526.26 176.7L528.01 176.9L530.66 180.25L533.19 185.98L534.46 189.57L531.7 196.26L530.04 198.43L526.16 203.15L525.52 203.65L523.54 205.49L517.11 210.32L513.82 212.74L505.89 217.74L502.38 219.93L494.36 224.5L488.99 227.4L476.7 232.54L458.49 237.96L437.42 244.77L413.81 252.06L388.65 259.79L361.97 268.04L334.46 276.77L306.19 286.04L277.59 295.81L248.79 306.14L219.93 317.01L191.28 328.45L162.72 340.51L134.68 353.18L106.91 366.59L80.01 380.67L53.71 395.65L28.84 411.37L25.1 432.8L25.43 454.37L29.67 476.16L38.8 497.48L35.81 513.52L37.7 528.98L44.71 544.14L58.08 558.13L78.47 571.11L106.92 581.99L137.96 586.79L152.63 587.94L153.32 586.96L153.53 587.29L157.86 588.36L160.47 588.62L167.86 590.03L175.89 591.76L177.84 592.06L178.8 592.11L178.83 592.12L188.11 592.98L199.75 594.27L207.3 595.26L212.2 595.39L214.63 595.45" stroke="#F0F1F1" stroke-linecap="round" stroke-linejoin="round"/>
</g>
<g style="mix-blend-mode:overlay">
<path d="M1364.75 61.7498L1325.24 102.47L1284.38 143.43L1239.72 185.38L1193.67 227.01L1194.6 241.51L1191.16 258.61L1179.84 279.24L1162.28 302.51L1134.87 329.11L1060.96 367.29L1049.11 373.42L1003.92 402.19L949.78 432.55L883.76 464.42L808.23 496.76L721.17 529.07L625.6 560.28L520.73 589.56L410.33 616.01L372.11 623.52L294.82 638.72L258.04 644.56L178.33 657.22L61.95 670.85L-0.339966 661.03" stroke="#F0F1F1" stroke-linecap="round" stroke-linejoin="round"/>
</g>
<g style="mix-blend-mode:overlay">
<path d="M194.07 133.22L139.51 134.1" stroke="#F0F1F1" stroke-linecap="round" stroke-linejoin="round"/>
</g>
<g style="mix-blend-mode:overlay">
<path d="M1302.4 95.1498L1265.82 135.11L1228.1 175.14L1186.81 216L1144.26 256.41L1143.75 268.96L1139.38 283.98L1127.61 302.36L1110.14 323.21L1083.38 347.2L1049.11 373.42L981.09 405.54L960.61 415.22L896.6 443.13L885.12 448.14L875.81 452.2L873.12 453.37L830.93 469.91L826.29 471.73L785.35 487.78L781.35 489.21" stroke="#F0F1F1" stroke-linecap="round" stroke-linejoin="round"/>
</g>
<g style="mix-blend-mode:overlay">
<path d="M1513.35 567.82L1461.75 582.15L1315.76 677.14L1144.93 777.31L861.09 819.8L596.21 847.59L588.28 850.47" stroke="#F0F1F1" stroke-linecap="round" stroke-linejoin="round"/>
</g>
<g style="mix-blend-mode:overlay">
<path d="M1513.35 363.63L1473.13 397.74L1292.58 457.93L1109.73 512.09L926.9 559.05L750.64 597.3L583.32 626.28L507.39 635.93L430.95 645.64L294.69 655.66L178.33 657.22L81.25 651.18L-0.339966 656.17" stroke="#F0F1F1" stroke-linecap="round" stroke-linejoin="round"/>
</g>
<g style="mix-blend-mode:overlay">
<path d="M-0.339966 146.54L51.19 144.31L111.46 143.47L163.28 144.3L206.65 146.63L243.03 150.1L272.3 154.62L295.61 159.96L312.86 166.08L325.01 172.83L331.99 180.24L334.66 188.22L333.02 196.82L327.82 206L319.16 215.86L307.72 226.37L293.68 237.64L277.66 249.67L259.94 262.54L226.66 271.33L192.26 280.91L156.66 291.38L120.11 302.83L82.4 315.47L44.02 329.34L4.76003 344.73L-0.339966 355.83" stroke="#F0F1F1" stroke-linecap="round" stroke-linejoin="round"/>
</g>
<g style="mix-blend-mode:overlay">
<path d="M1060.55 311.9L1040.85 333.4L1036.63 337.02L1032.91 340.42" stroke="#F0F1F1" stroke-linecap="round" stroke-linejoin="round"/>
</g>
<g style="mix-blend-mode:overlay">
<path d="M1513.35 447.06L1474.07 477.47L1263.49 538.07L1051.21 591.01L844.35 634.45L646.46 667.52L464.64 689.6L301.03 700.88L160.47 702.2L42.72 694.55L-0.339966 698.79" stroke="#F0F1F1" stroke-linecap="round" stroke-linejoin="round"/>
</g>
<g style="mix-blend-mode:overlay">
<path d="M307.9 136.58L263.96 134.36L260.49 134.19L243.19 133.91L204.4 133.28L178.04 133.61" stroke="#F0F1F1" stroke-linecap="round" stroke-linejoin="round"/>
</g>
<g style="mix-blend-mode:overlay">
<path d="M1513.35 227.38L1471.34 248.74L1353.08 304.56L1246.45 350.62L1228.42 358.41L1119.32 401.53L1113.09 403.99L1101.45 408.59L996.7 445.78L972.09 454.52L869.95 486.97L845.23 494.82L753.86 520.05L721.17 529.07L604.63 556.61L495.74 577.37L402.83 590.87L398.1 591.55L382.62 592.95L332.2 597.52L311.24 599.41L270.98 603.25L224.59 607.67L138.54 611.94L55.91 612.49L-0.339966 609.93" stroke="#F0F1F1" stroke-linecap="round" stroke-linejoin="round"/>
</g>
<g style="mix-blend-mode:overlay">
<path d="M1513.35 382.82L1473.13 397.74L1378.3 465.92L1263.49 538.07L1126.5 613.59L902.02 659.83L686.54 695.09L487.71 718.59L308.26 730.48L153.56 731.58L23.66 722.96L-0.339966 725.79" stroke="#F0F1F1" stroke-linecap="round" stroke-linejoin="round"/>
</g>
<g style="mix-blend-mode:overlay">
<path d="M1513.35 464.73L1474.07 477.47L1355.69 557.39L1213.5 641.85L1048.83 729.61L791.19 769.55L551.57 795.93L334.26 808.77L180.83 850.47" stroke="#F0F1F1" stroke-linecap="round" stroke-linejoin="round"/>
</g>
<g style="mix-blend-mode:overlay">
<path d="M1460.52 -0.470215L1431.98 29.0098L1389.78 70.4098L1345.91 112.25L1297.96 155.29L1248.34 198.16L1250.56 214.58L1248.01 233.75L1237.11 256.62L1219.47 282.34L1191.46 311.61L1154.62 343.54L1105.44 378.51L1045.61 415.52L972.09 454.52L887.05 494.37L788.39 534.53L679.17 573.76L558.66 611.17L473.98 634.03L430.95 645.64L296.65 676.19L160.47 702.2L23.66 722.96L-0.339966 719.15" stroke="#F0F1F1" stroke-linecap="round" stroke-linejoin="round"/>
</g>
<g style="mix-blend-mode:overlay">
<path d="M1513.35 25.2098L1483.27 51.7198L1429.38 96.6898L1372.94 141.97L1311.61 188.13L1309.89 209.37L1299.47 234.51L1281.82 262.71L1253.29 294.72L1215.25 329.67L1164.14 367.95L1111.76 401.91L1101.45 408.59L1024.07 451.52L934 495.59L829.13 540.21L712.46 584.1L583.32 626.28L542.57 637.93L445.94 665.55L301.03 700.88L153.56 731.58L4.90003 756.92L-0.339966 756.09" stroke="#F0F1F1" stroke-linecap="round" stroke-linejoin="round"/>
</g>
<g style="mix-blend-mode:overlay">
<path d="M300.37 185.3L265.6 191.06L228.04 197.58L187.5 205.03L144.11 213.53L97.84 223.26L48.63 234.39L-0.339966 246.36" stroke="#F0F1F1" stroke-linecap="round" stroke-linejoin="round"/>
</g>
<g style="mix-blend-mode:overlay">
<path d="M-0.339966 167.32L34.75 167.6L75.17 169.62L108.72 172.91L135.47 177.43L156.39 182.94L171.64 189.44L181.92 196.8L187.5 205.03L188.94 214.09L186.62 224.01L180.98 234.79L172.55 246.47L161.68 259.09L120.6 269.72L77.59 281.68L33.03 295.06L-0.339966 305.92" stroke="#F0F1F1" stroke-linecap="round" stroke-linejoin="round"/>
</g>
<g style="mix-blend-mode:overlay">
<path d="M911.14 60.3198L901.09 54.8298L881.37 44.0598L850.16 29.6898L831.45 14.4598L823.53 -0.470215" stroke="#F0F1F1" stroke-linecap="round" stroke-linejoin="round"/>
</g>
<g style="mix-blend-mode:overlay">
<path d="M-0.339966 176.59L31.51 177.93L64.85 181.12L91.81 185.51L112.63 191.04L128.03 197.58L138.34 205.1L144.11 213.53L145.78 222.89L143.75 233.17L138.59 244.38L93.82 255.23L49.69 266.78L46.95 267.5L40.79 280.75L-0.339966 293.2" stroke="#F0F1F1" stroke-linecap="round" stroke-linejoin="round"/>
</g>
<g style="mix-blend-mode:overlay">
<path d="M1421.5 -0.470215L1400.72 22.5598L1367.94 18.4298L1332.1 17.4998L1295.86 18.5098L1257.89 22.3198L1239.57 55.5898L1219 90.4198L1197.93 125.66L1174.23 162.21L1149.68 198.9L1122.01 236.54L1093.07 273.98L1060.55 311.9L1060.94 317.3L1057.14 325.78L1050.51 336.54L1037.68 350.37L1020.25 366.41L994.78 385.27L963.07 406.06L921.83 429.06L873.12 453.37L814.14 478.89L747.3 504.69L670.63 530.29L587.06 554.77L495.74 577.37L402.03 596.97L400.09 597.38L305.28 605.5L224.59 607.67L156.97 604.4L102.93 597L60.97 585.92L30.37 572.51L9.67003 557.01L-0.339966 543.46" stroke="#F0F1F1" stroke-linecap="round" stroke-linejoin="round"/>
</g>
<g style="mix-blend-mode:overlay">
<path d="M1513.35 179.84L1500.3 207.91L1406.08 256.46L1393.1 263.15L1293.8 310.67L1281.35 316.63L1182.18 360.06L1164.14 367.95L1105.14 391.63L1063.44 408.37L1045.61 415.52L950.72 449.74L925.42 458.86L834.09 488.4L808.23 496.76L729.46 518.93L694 528.9L624.19 545.79L587.06 554.77L497.25 572.37L487.23 574.33L406.48 586.51" stroke="#F0F1F1" stroke-linecap="round" stroke-linejoin="round"/>
</g>
<g style="mix-blend-mode:overlay">
<path d="M1232.94 -0.470215L1220.81 27.6898L1205.65 60.1898L1190.22 93.2398L1161.12 98.5998L1148.53 131.49L1133.65 165.76L1118.73 198.53L1117.9 200.36L1100.76 233.22L1099.26 236.09L1080.13 270.18L1079.16 271.89L1057.09 306.05L1055.53 308.46L1052.56 310.3L1048.58 316.6L1047.84 317.77" stroke="#F0F1F1" stroke-linecap="round" stroke-linejoin="round"/>
</g>
<g style="mix-blend-mode:overlay">
<path d="M413.29 147.49L385.06 142.08L382.57 141.12L381.56 140.83L374.16 139.83L353.02 138.31L342.59 137.34L308.74 136.06L305.41 138.24L297.1 140.44L255.45 137.36L205.58 135.59L147.53 135.34L146.75 134.31L139.51 134.1L91.39 136.07L76.24 137.54L66.91 140.97L51.19 144.31L28.94 148.73L1.39003 154.13L-0.339966 154.47" stroke="#F0F1F1" stroke-linecap="round" stroke-linejoin="round"/>
</g>
<g style="mix-blend-mode:overlay">
<path d="M-0.339966 149.98L28.94 148.73L88.21 147.83L111.46 143.47L129.58 139.91L141.41 137.25L197.21 137.77L244.24 139.84L284 143.09L316.38 147.39L342.6 152.48L362.47 158.31L377.08 164.72L386.23 171.71L390.91 179.19L390.97 187.19L387.33 195.67L358.67 200.59L327.82 206L294.5 212.04L258.99 218.75L221.13 226.3L180.98 234.79L138.59 244.38L130.64 256.56L120.6 269.72L108.75 283.94L95.94 299.16L82.4 315.47L69.12 332.78L56.3 351.16L45.05 370.4L14.06 386.27L-0.339966 394.46" stroke="#F0F1F1" stroke-linecap="round" stroke-linejoin="round"/>
</g>
<g style="mix-blend-mode:overlay">
<path d="M1003.21 -0.470215L978.65 14.8298L960.41 31.0298L950.53 47.5498L949.8 63.9998L958.17 81.0498L973.61 93.9798L983.28 102.07L996.79 114.97L1002.96 120.86L1006.08 123.55L1007.26 124.82L1007.39 125" stroke="#F0F1F1" stroke-linecap="round" stroke-linejoin="round"/>
</g>
<g style="mix-blend-mode:overlay">
<path d="M942.72 77.3798L940.14 75.4598L936.13 71.7498L919.49 60.1698L908.11 53.5998L890.58 43.4598L861.19 28.1498L851.27 12.4398L824.42 -0.470215" stroke="#F0F1F1" stroke-linecap="round" stroke-linejoin="round"/>
</g>
<g style="mix-blend-mode:overlay">
<path d="M1221.25 -0.470215L1193.9 5.25978L1154.58 15.6898L1118.59 26.9598L1085.6 39.7498L1057.78 53.0198L1035.1 67.3998L1019.23 82.0798L1010.23 97.7398L1009.07 113.85L1021.61 132.17L1026.46 139.24L1036.06 156.57L1043.18 168.81L1046.27 173.56" stroke="#F0F1F1" stroke-linecap="round" stroke-linejoin="round"/>
</g>
<g style="mix-blend-mode:overlay">
<path d="M333.45 300.77L308.44 312.24L282.59 324.49L261.57 338.52L241.71 352.97L235.51 356.73L217.05 367.89L193.4 383.48L170.8 399.75L150.29 416.43L131.67 433.58L116.03 450.79L102.98 468.21L93.62 485.29L87.44 502.28L85.53 518.5" stroke="#F0F1F1" stroke-linecap="round" stroke-linejoin="round"/>
</g>
<g style="mix-blend-mode:overlay">
<path d="M355.32 289.02L330.37 299.64L304.29 310.97L282.59 324.49L256.34 337.49L230.43 351.18L211.03 367.15L187.13 382.42L164.41 398.31L143.83 414.53L131.67 433.58L122.44 452.58L115.52 471.65L111.74 490.22L110.26 508.49L111.78 525.81L115.3 542.49L121.35 557.8L128.86 572.2L135.38 581.12" stroke="#F0F1F1" stroke-linecap="round" stroke-linejoin="round"/>
</g>
<g style="mix-blend-mode:overlay">
<path d="M1002.53 120.5L996.79 114.97L983.28 102.07L972.65 84.8498L966.28 79.0298L949.8 63.9998L926.18 44.9198L902.02 27.1698L877.23 11.0898" stroke="#F0F1F1" stroke-linecap="round" stroke-linejoin="round"/>
</g>
<g style="mix-blend-mode:overlay">
<path d="M377.15 277.8L352.53 287.56L326.5 298.01L304.29 310.97L277.68 323.01L250.91 335.75L230.43 351.18L205.01 365.54L180.91 380.42L164.41 398.31L150.29 416.43L138.14 434.84L128.81 453.11L121.66 471.35L117.49 489.01L115.45 506.29L116.24 522.55L118.86 538.08L123.85 552.23L130.2 565.36L138.31 576.86L144.75 584.29" stroke="#F0F1F1" stroke-linecap="round" stroke-linejoin="round"/>
</g>
<g style="mix-blend-mode:overlay">
<path d="M1364.75 61.7498L1389.78 70.4098L1412.32 81.6598L1429.38 96.6898L1442.48 114.69L1448.42 136.79L1448.55 162.23L1439.45 191.99L1422.17 225.37L1393.1 263.15L1353.08 304.56L1298.51 350.05L1230.28 398.69L1145.21 450.44L1044.8 504.09L926.9 559.05L794.32 613.87L646.46 667.52L487.71 718.59L319 766L145.72 808.91L-0.339966 840.16" stroke="#F0F1F1" stroke-linecap="round" stroke-linejoin="round"/>
</g>
<g style="mix-blend-mode:overlay">
<path d="M305.56 429.19L280.78 421.7L279.13 420.84L274.04 420.45L256.04 417.84L250.75 417.36L234.71 415.37L222.5 413.74L218.62 413.7L199.99 412.31L191.97 411.72L187.52 411.29" stroke="#F0F1F1" stroke-linecap="round" stroke-linejoin="round"/>
</g>
<g style="mix-blend-mode:overlay">
<path d="M1270.51 -0.470215L1257.89 22.3198L1220.81 27.6898L1183.65 35.4098L1173.3 66.2198L1161.12 98.5998L1134.31 105.31L1124.96 137.65L1114.92 170.5L1102.39 204.67L1089.39 237.09L1088.56 239.16L1074.5 268.52L1072.9 271.88L1071.54 274.72L1058.53 299.1L1058.25 299.63L1055.63 304.54L1054.57 308.39L1047.45 319.87L1046.37 321.4L1044.5 324.04L1038.75 332.17" stroke="#F0F1F1" stroke-linecap="round" stroke-linejoin="round"/>
</g>
<g style="mix-blend-mode:overlay">
<path d="M398.77 267.07L374.56 276.05L348.89 285.62L322.07 295.84L294.68 306.65L267.11 318.08L239.65 330.09L212.76 342.64L186.45 355.75L161.3 369.3L137.09 383.38L114.5 397.82L93.19 412.79L73.99 428.03L56.54 443.8L41.85 459.75L29.67 476.16L21.19 492.56" stroke="#F0F1F1" stroke-linecap="round" stroke-linejoin="round"/>
</g>
<g style="mix-blend-mode:overlay">
<path d="M-0.339966 160.12L25.36 159.6L73.85 160.29L114.85 162.42L148.36 165.88L184.21 159.78L215.61 154.59L243.03 150.1L265.67 146.32L284 143.09L297.1 140.44L331.92 144.5L359.74 149.46L381.74 155.08L397.68 161.33L408.66 168.08L414.44 175.34L416.05 183.03L413.28 191.2L407.1 199.83L397.35 208.99L384.94 218.68L369.78 229L352.7 239.94L333.72 251.61L313.53 264.01L292.32 277.23L262.51 286.39L232.22 296.14L201.5 306.52L170.53 317.58L139.17 329.44L107.81 342.1L76.23 355.77L45.05 370.4L35.5 390.59L28.84 411.37L5.25003 428.1L-0.339966 432.71" stroke="#F0F1F1" stroke-linecap="round" stroke-linejoin="round"/>
</g>
<g style="mix-blend-mode:overlay">
<path d="M419.64 256.89L396.34 265.08L371.06 273.85L344.61 283.18L317.21 293.1L289.4 303.59L261.47 314.65L233.66 326.26L206.36 338.4L179.52 351.09L153.67 364.26L128.55 378L104.81 392.19L82.13 407L61.32 422.23L42.08 438.12L25.43 454.37L11.24 471.27L0.750031 488.35L-0.339966 491.24" stroke="#F0F1F1" stroke-linecap="round" stroke-linejoin="round"/>
</g>
<g style="mix-blend-mode:overlay">
<path d="M1383.15 -0.470215L1367.94 18.4298L1335.66 56.5498L1302.4 95.1498L1275.82 91.1898L1245.45 129.15L1211.93 168.31L1177.38 207.4L1139.36 247.19L1100.09 286.45L1098 297L1092.56 309.92L1080.3 326.03L1062.88 344.48L1036.77 365.89L1003.8 389.37L960.61 415.22L909.23 442.49L846.79 471.11L775.71 500.07L694 528.9L604.63 556.61L506.78 582.4L404.06 605.46L300.37 613.93L212.19 615.89L138.54 611.94L80.02 603.48L34.99 591.07L2.67003 576.17L-0.339966 573.77" stroke="#F0F1F1" stroke-linecap="round" stroke-linejoin="round"/>
</g>
<g style="mix-blend-mode:overlay">
<path d="M1066.79 243.75L1066.95 240.81L1066.35 208.57L1063.05 177.89L1058.24 148.12L1070.38 135.6L1087.96 123.98L1109.15 114.12L1134.31 105.31L1141.74 74.4698L1148.93 44.2698L1154.58 15.6898L1157.85 -0.470215" stroke="#F0F1F1" stroke-linecap="round" stroke-linejoin="round"/>
</g>
<g style="mix-blend-mode:overlay">
<path d="M947.91 78.6398L932.31 61.4698L923.9 55.8098L905.82 43.6698L878.8 27.2298L851.27 12.4398" stroke="#F0F1F1" stroke-linecap="round" stroke-linejoin="round"/>
</g>
<g style="mix-blend-mode:overlay">
<path d="M178.29 422.19L170.9 431.29L170.15 432.3L166.67 436.98L156.81 450.25L154.11 454.56L144.48 469.92L134.1 490.35L132.73 494.31L127 510.97L123.15 531.85L123.85 552.23L128.86 572.2L133.27 580.09" stroke="#F0F1F1" stroke-linecap="round" stroke-linejoin="round"/>
</g>
<g style="mix-blend-mode:overlay">
<path d="M273.76 337.94L255.19 350.64L243.99 357.63L228.6 366.98L222.62 371.17L205.97 382.84L199.69 387.59L183.88 399.57L179.06 403.67L163.47 416.91L158.13 422.03L144.71 434.9L140.81 439.36L128.81 453.11L124.57 459.02L115.52 471.65L106.04 489.93L99.93 508.14L98.34 525.54L100.74 542.42L106.41 554.29L108.76 557.01L112.44 560.99L112.48 561.05L117.04 566.87L119.63 571.14L119.97 572.26L120.5 572.82L122.33 574.06" stroke="#F0F1F1" stroke-linecap="round" stroke-linejoin="round"/>
</g>
<g style="mix-blend-mode:overlay">
<path d="M1307.81 -0.470215L1295.86 18.5098L1272.41 53.6598L1248.47 89.3198L1221.83 126.41L1194.43 163.71L1163.95 202.08L1132.39 240.29L1097.35 279.09L1060.94 317.3L1034.92 342.04L1025.25 352.29L1014.27 362.81L1012 364.04L998.48 375.3L986.06 385.04" stroke="#F0F1F1" stroke-linecap="round" stroke-linejoin="round"/>
</g>
<g style="mix-blend-mode:overlay">
<path d="M1345.34 -0.470215L1332.1 17.4998L1305.37 53.5598L1275.82 91.1898L1248.47 89.3198L1219 90.4198L1190.22 93.2398L1172.57 127.76L1154.32 162.62L1133.36 198.7L1111.33 234.87L1086.02 271.91L1059.12 308.69L1043.53 327.56L1040.99 330.65L1036.63 337.02L1028.14 346.72L1019.81 356.01L1012.86 364.02L999.42 375.48L986.06 385.04L968.32 397.72L947.86 410.68L917.87 427.96L887.15 443.77" stroke="#F0F1F1" stroke-linecap="round" stroke-linejoin="round"/>
</g>
<g style="mix-blend-mode:overlay">
<path d="M177.78 591.9L170.11 572.22L165.85 551.61L164.34 531.27L165.22 511.32L167.6 492.07L170.92 473.65L174.36 456.24L177.2 439.93L178.74 424.95L178.77 424.88" stroke="#F0F1F1" stroke-linecap="round" stroke-linejoin="round"/>
</g>
<g style="mix-blend-mode:overlay">
<path d="M435.12 171.8L414.44 175.34L390.91 179.19L364.11 183.47L334.66 188.22L302.24 193.56L267.23 199.56L229.4 206.37L188.94 214.09L145.78 222.89L99.88 232.91L51.39 244.34L0.100029 257.4L-0.339966 257.52" stroke="#F0F1F1" stroke-linecap="round" stroke-linejoin="round"/>
</g>
<g style="mix-blend-mode:overlay">
<path d="M457.41 183.28L436.9 187.07L413.28 191.2L387.33 195.67L379.89 204.71L369.51 214.28L356.16 224.49L340.62 235.34L322.96 246.92L303.86 259.25L283.53 272.4L252.82 281.35L221.44 290.93L189.38 301.21L156.83 312.26L123.64 324.22L90.2 337.11L56.3 351.16L22.6 366.34L-0.339966 377.67" stroke="#F0F1F1" stroke-linecap="round" stroke-linejoin="round"/>
</g>
<g style="mix-blend-mode:overlay">
<path d="M212.13 595.22L204.29 576.42L198.62 556.57L195.22 537.04L193.41 518.07L192.58 499.84L192.18 482.45L191.4 466.09L189.81 450.75L186.46 436.63L181.67 425.23L181.29 424.34L181.02 423.69L179.38 421.97L178.86 422.74L179.32 423.5L178.84 424.7L178.51 424.73L177.6 424.96L176.72 427.48L176.13 430.95L173.31 436.26L171.46 440.28L170.61 444.23L172.09 450.68L174.36 456.24L178.41 460.65L176.44 477.79L174.49 495.91L173.26 514.89L173.52 534.53L175.77 554.69L180.85 575L188.11 592.99" stroke="#F0F1F1" stroke-linecap="round" stroke-linejoin="round"/>
</g>
<g style="mix-blend-mode:overlay">
<path d="M958.23 -0.470215L942.34 11.8598L929.65 28.3098L926.18 44.9198L932.31 61.4698L949.33 74.3598L958.17 81.0498L973.33 96.6898L975.64 98.6098L975.67 98.6298L986.68 107.6L1002.96 120.86L1005.68 123.38" stroke="#F0F1F1" stroke-linecap="round" stroke-linejoin="round"/>
</g>
<g style="mix-blend-mode:overlay">
<path d="M367.09 450.52L349.96 441.05L348 438.88L331.55 433.29L329.33 432.6L321.9 430.59L315.83 428.89" stroke="#F0F1F1" stroke-linecap="round" stroke-linejoin="round"/>
</g>
<g style="mix-blend-mode:overlay">
<path d="M1035.32 156.69L1033.28 152.67L1026.46 139.24L1025.22 122.73L1010.23 97.7398L994.45 73.9398L977.66 51.8998L960.41 31.0298L942.34 11.8598L929.66 -0.470215" stroke="#F0F1F1" stroke-linecap="round" stroke-linejoin="round"/>
</g>
<g style="mix-blend-mode:overlay">
<path d="M458.71 242.05L440.4 250.05L420.36 259.47L399.69 269.31L378.41 279.63L356.14 289.54L333.45 300.77L311.84 312.98L290.85 325.63L270.59 338.66L251.56 351.97L233.66 365.5L217.5 379.06L209.72 385.32L196.88 395.68L183.91 409.87L179.3 415.76L177.49 418.94L173.75 424.08L163.81 437.31L156.81 450.25L152.23 462.29L149.5 473.51L149.05 483.55L150.35 492.5L153.68 500.09L158.58 506.42L165.22 511.32L173.26 514.89L182.72 517.12L193.41 518.07L205.21 517.85L218.07 516.52L231.71 514.29L246.19 511.16L261.06 507.44L276.44 503.1L291.73 498.46L307.08 493.47L321.73 488.46L335.87 483.33L348.58 478.4L360.05 473.55L369.29 469.07L376.44 464.86L380.51 461.15L381.01 457.39L378.58 455.34" stroke="#F0F1F1" stroke-linecap="round" stroke-linejoin="round"/>
</g>
<g style="mix-blend-mode:overlay">
<path d="M199.66 594.06L192.17 576.43L186.79 556.28L183.79 536.45L182.72 517.12L182.86 498.48L183.54 480.72L184.18 463.91L183.94 448.22L182.33 433.65L179.15 424.15L178.69 424.2L178.67 424.55L178.36 425.16L178.02 426.34L177.31 427.48L175.5 428.61L171.94 431.07L164.25 443.08L161.52 447.44L152.23 462.29L149.8 466.89L141.58 482.4L140.18 486.02L133.61 502.94L128.43 523.94L127.33 544.73L130.2 565.36L136.93 581.87" stroke="#F0F1F1" stroke-linecap="round" stroke-linejoin="round"/>
</g>
<g style="mix-blend-mode:overlay">
<path d="M1513.35 83.6898L1502.01 68.3298L1483.27 51.7198L1458.98 39.0098L1431.98 29.0098L1400.72 22.5598L1364.75 61.7498L1335.66 56.5498L1305.37 53.5598L1272.41 53.6598L1239.57 55.5898L1205.65 60.1898L1173.3 66.2198L1141.74 74.4698L1113.42 83.7698L1087.91 94.8398L1067.34 106.69L1051.52 120L1042.02 134.03L1038.73 149.51L1042.52 165.94L1046.27 173.56L1050.71 182.6L1056.5 194.37L1060.8 207.25L1064.67 222.62L1064.7 222.77L1066.79 243.75L1065.99 262.59L1065.69 264.63L1061.99 282.44L1061.5 284.83L1060.89 286.85L1055.47 301.63L1051.8 310.77L1049.32 314.99L1047.84 317.77L1038.75 332.17L1032.91 340.42L1028.43 345.85L1026.38 349.18L1019.81 356.01L1015.88 359.84L1012 364.04L1004.23 370.79L998.94 375.4L981.89 389.12L963.59 401.1L957 405.41L943.63 413.36L926.46 423.9L910.97 431.94L887.15 443.77L883.55 445.44L841.02 465.22L836.43 467.08L785.35 487.78L780.54 489.53L722.55 510.58L710.6 514.33L650.64 533.15L619.19 541.8L572.5 554.64L543.89 560.42L480.84 573.15L469.11 575.22L425.04 583.01L420 583.9L406.36 586.42L405.25 586.7L398.04 586.98L390.96 586.99L381.61 588.08L379.89 588.15L370.78 588.95L358.65 590.89L349.43 593.38L311.24 599.41L237.15 601.84L174.74 599.24L124.47 592.83L84.98 582.97L55.66 570.9L35.25 556.76L22.59 541.67L-0.339966 527.46" stroke="#F0F1F1" stroke-linecap="round" stroke-linejoin="round"/>
</g>
<g style="mix-blend-mode:overlay">
<path d="M222.1 376.29L207.92 389.01L200.32 396.28L199.73 396.83" stroke="#F0F1F1" stroke-linecap="round" stroke-linejoin="round"/>
</g>
<g style="mix-blend-mode:overlay">
<path d="M1311.61 188.13L1308.15 169.81L1297.96 155.29L1284.38 143.43L1265.82 135.11L1245.45 129.15L1221.83 126.41L1197.93 125.66L1172.57 127.76L1148.53 131.49L1124.96 137.65L1104.35 145.13L1086.19 154.68L1072.52 165.35L1063.05 177.89L1059.23 191.59L1060.8 207.25" stroke="#F0F1F1" stroke-linecap="round" stroke-linejoin="round"/>
</g>
<g style="mix-blend-mode:overlay">
<path d="M1015.66 131.17L1009.07 113.85L990.37 90.2998L970.89 68.0398L950.53 47.5498L929.65 28.3098L908.05 10.7598L892.81 -0.470215" stroke="#F0F1F1" stroke-linecap="round" stroke-linejoin="round"/>
</g>
<g style="mix-blend-mode:overlay">
<path d="M371.39 451.14L381.57 457.83L382.74 458.7L391.67 465.9L393.08 469.05L391.08 472.76L385.66 477.04L377.79 481.68L367.4 486.75L355.44 492L341.8 497.54L327.36 503.08L311.98 508.71L296.44 514.12L280.59 519.36L265.06 524.12L249.72 528.41L235.02 531.94L220.9 534.68L207.62 536.41L195.22 537.04L183.79 536.45L173.52 534.53L164.34 531.27L156.6 526.53L150.13 520.43L145.42 512.82L142.19 503.96L141.04 493.7L141.58 482.4L144.48 469.92L149.23 456.69L156.47 442.61L165.59 428.11L177.15 413.12L179.81 410.51L190.47 398.04L205.97 382.84L222.97 367.81L241.71 352.97L260.62 342.19L266.41 338.89L283.8 330.26L284.88 330.45L293.58 325.44L294.83 324.88L314.56 313.21L321.5 309.36L322.62 308.77L335.61 301.61L356.97 290.4L378.52 279.14L399.35 267.88L419.64 256.89L439.81 247.17L458.49 237.96L475.96 229.16L491.19 220.8L504.64 212.77L515.11 205.1L523.19 197.7L527.52 190.6L528.79 183.72L525.55 177.11L524.78 173.92" stroke="#F0F1F1" stroke-linecap="round" stroke-linejoin="round"/>
</g>
<g style="mix-blend-mode:overlay">
<path d="M476.32 233.57L459.5 240.17L439.81 247.17L417.26 254.68L392.91 262.65L366.83 271.18L339.8 280.22L311.95 289.82L283.76 299.95L255.44 310.64L227.19 321.86L199.31 333.62L171.74 345.96L144.93 358.82L118.63 372.33L93.46 386.39L69.11 401.21L46.4 416.58L25.1 432.8L6.27003 449.56L-0.339966 456.65" stroke="#F0F1F1" stroke-linecap="round" stroke-linejoin="round"/>
</g>
<g style="mix-blend-mode:overlay">
<path d="M285.35 595.52L279.21 578.97L273.6 559.99L268.99 541.71L265.06 524.12L261.06 507.44L256.81 491.58L251.41 476.78L244.82 462.91L235.99 450.23L225 438.58L210.67 428.29L193.13 419.21L183.97 416.09" stroke="#F0F1F1" stroke-linecap="round" stroke-linejoin="round"/>
</g>
<g style="mix-blend-mode:overlay">
<path d="M-0.339966 189.04L17.21 190.56L44.3 194.87L65.47 200.35L112.63 191.04L156.39 182.94L196.51 175.94L212.06 182.33L222.34 189.57L228.04 197.58L229.4 206.37L226.98 215.93L221.13 226.3L212.31 237.5L201 249.56L161.68 259.09L149.03 272.66L108.75 283.94L67.11 296.48L23.86 310.54L-0.339966 319.1" stroke="#F0F1F1" stroke-linecap="round" stroke-linejoin="round"/>
</g>
<g style="mix-blend-mode:overlay">
<path d="M406.42 584.85L407.32 580.84L408.39 574.99L410.86 557.05L412.67 539.73L412.83 523.57L414.72 518.34" stroke="#F0F1F1" stroke-linecap="round" stroke-linejoin="round"/>
</g>
<g style="mix-blend-mode:overlay">
<path d="M406.55 584.83L407.32 580.84L408.63 574.58L409.86 568.68" stroke="#F0F1F1" stroke-linecap="round" stroke-linejoin="round"/>
</g>
<g style="mix-blend-mode:overlay">
<path d="M178.41 460.65L179.75 444.59L179.63 429.75L178.77 424.88" stroke="#F0F1F1" stroke-linecap="round" stroke-linejoin="round"/>
</g>
<g style="mix-blend-mode:overlay">
<path d="M501.67 220.08L491.91 225.5L477.07 231.52L460.33 240.62L455.73 243.64L454.51 244.21L440.83 249.88L420.16 257.81L399.35 267.88L377.15 277.8L356.14 289.54L335.4 301.45L334.34 302.04L328.74 305.15L314.56 313.21L298.05 322.88L294.21 325.16L274.84 337.27L273.76 337.94L264.29 343.93L251.56 351.97L243.99 357.63L233.66 365.5L227.31 370.81L217.5 379.06L202.82 392.61L198.97 396.83L190.25 405.89L185.99 411.05L185.46 412.04L184 414.6L183.92 416.08L183.06 417.33L182.49 418.13L182.45 418.39L187.38 419.14L193.13 419.21L198.72 418.94L204.57 418.18L209.56 417.31L233.5 424.43L252.98 433.07L269.27 442.87L282.1 453.97L293.94 450.46L304.46 447.04L313.96 443.58L321.36 440.4L326.9 437.39L330.26 434.1L329.33 432.67L325.33 431.18L315.83 428.89L306.84 426.78L303.37 425.92L280.78 421.7L274.04 420.45L267.8 419.18L256.93 417.55L250.66 417.22L248.99 419.4L245.35 420.99L239.79 422.79L233.5 424.43L226.05 426.05L218.58 427.3L198.72 418.94L184.63 414.79L183.64 415.98L183.59 416.44L182.23 416.98L179.42 418.89L179.35 419L178.39 420.39L171.94 431.07L164.25 443.08L159.94 453.97L157.5 463.96L157.28 472.79L158.85 480.5L162.4 486.91L167.6 492.07L174.49 495.91L182.86 498.48L192.58 499.84L203.6 500.03L215.62 499.21L228.71 497.4L242.38 494.87L256.81 491.58L271.34 487.87L286.2 483.66L300.59 479.31L314.74 474.72L327.74 470.22L339.82 465.7L349.98 461.47L358.4 457.41L364.06 453.78L367.73 449.82L371.39 451.14L378.58 455.34L381.55 457.9L393.32 468.61L399.29 475.05L401.36 477.54L402.29 480.58L408.37 490.12L407.72 494.31L403.91 499.03L396.98 504.32L387.85 509.96L376.51 516.03L363.83 522.29L349.77 528.82L335.09 535.34L319.74 541.92L304.33 548.26L288.81 554.38L273.6 559.99L258.67 565.07L244.24 569.37L230.33 572.8L216.98 575.2L204.29 576.42L192.17 576.43L180.85 575L170.11 572.22L160.39 567.84L151.38 562.07L143.7 554.63L137.01 545.86L132.05 535.48L128.43 523.94L127 510.97L127.24 497.1L130.02 482.12L134.71 466.56L142.11 450.27L151.48 433.75L163.47 416.91L177.29 400.17L193.4 383.48L211.03 367.15L236.14 352.46L261.57 338.52L287.07 325.34L311.84 312.98L334.42 301.11L356.14 289.54L377.84 278.47L399.35 267.88L420.36 259.47L429.68 255.73L437.08 252.32L440.44 250.73L453.71 244.5L458.71 242.05L472.34 235.64L476.32 233.57L486.74 228.17L491.91 225.5L503.1 219.78L506.73 216.31L517.2 207.86L525.83 200.57L530.84 193.57L532.94 186.78L532.95 183.14L530.66 180.25L527.49 176.6L524.78 173.92L522.6 172.73L518.56 170.64L513.76 167.9L509.97 166.38L506.24 164.67L504.41 164.04L499.03 162.2L495.31 161.09L489.39 158.92L481.96 157.06L476.8 155.56L464.09 152.89L462.09 152.47L460.34 152.13L459.66 152L451.97 150.35L439.68 148.48L414.82 145.14L386.27 141.38L381.53 140.81L374.16 139.83L348 138.13L309.4 135.62L304.83 135.33L295.46 134.78L293.8 134.74L260.57 134.62L255.45 137.36L244.24 139.84L228.14 142.89L206.65 146.63L180.74 151.03L149.86 156.3L114.85 162.42L75.17 169.62L31.51 177.93L-0.339966 184.34" stroke="#F0F1F1" stroke-linecap="round" stroke-linejoin="round"/>
</g>
<g style="mix-blend-mode:overlay">
<path d="M1248.34 198.16L1239.72 185.38L1228.1 175.14L1211.93 168.31L1194.43 163.71L1174.23 162.21L1154.32 162.62L1133.65 165.76L1114.92 170.5L1097.41 177.6L1083.42 186.06L1072.48 196.66L1066.35 208.57L1064.68 222.58" stroke="#F0F1F1" stroke-linecap="round" stroke-linejoin="round"/>
</g>
<g style="mix-blend-mode:overlay">
<path d="M918.55 -0.470215L908.05 10.7598L902.02 27.1698L905.82 43.6698L919.49 60.1698L936.13 71.7498L947.91 78.6398L961.95 88.7498L972.64 96.4498L973.33 96.6898L975.56 98.5198" stroke="#F0F1F1" stroke-linecap="round" stroke-linejoin="round"/>
</g>
<g style="mix-blend-mode:overlay">
<path d="M1050.87 177.48L1051.34 162.28L1042.02 134.03L1031.03 107.52L1019.23 82.0798L1006.29 58.3698L992.92 35.7498L978.65 14.8298L967.38 -0.470215" stroke="#F0F1F1" stroke-linecap="round" stroke-linejoin="round"/>
</g>
<g style="mix-blend-mode:overlay">
<path d="M398.36 586.12L399.46 571.21L406.3 563.86L407.69 546.07L408.11 529.32L412.83 523.57L411.41 508.4L412.6 503.75" stroke="#F0F1F1" stroke-linecap="round" stroke-linejoin="round"/>
</g>
<g style="mix-blend-mode:overlay">
<path d="M1513.35 200.66L1500.3 207.91L1471.34 248.74L1430.68 293.66L1374.72 343.1L1303.99 396.2L1215.26 452.92L1109.73 512.09L985.23 573.09L844.35 634.45L686.54 695.09L516.18 753.57L334.26 808.77L145.72 808.91L-0.339966 798.54" stroke="#F0F1F1" stroke-linecap="round" stroke-linejoin="round"/>
</g>
<g style="mix-blend-mode:overlay">
<path d="M331.06 593.03L327.4 578.65L323.42 559.83L319.74 541.92L316.19 524.81L311.98 508.71L307.08 493.47L300.59 479.31L292.6 466.06L282.1 453.97" stroke="#F0F1F1" stroke-linecap="round" stroke-linejoin="round"/>
</g>
<g style="mix-blend-mode:overlay">
<path d="M1513.35 59.1298L1502.01 68.3298L1442.48 114.69L1377.6 162.17L1376.76 185.5L1366.91 212.93L1349.36 243.69L1320.46 278.53L1281.35 316.63L1228.42 358.41L1162.91 402.91L1126.13 424.26L1081.65 450.08L986.43 498.72L875.12 548.26L750.64 597.3L612.37 644.85L464.64 689.6L308.26 730.48L148.46 766.73L-0.339966 795.14" stroke="#F0F1F1" stroke-linecap="round" stroke-linejoin="round"/>
</g>
<g style="mix-blend-mode:overlay">
<path d="M1081.8 -0.470215L1083.64 13.8698L1085.6 39.7498L1087.43 66.4798L1087.91 94.8398L1087.96 123.98L1086.19 154.68L1083.42 186.06L1078.16 218.9L1071.18 252.27L1065.3 272.05L1064.42 275L1061.33 285.64L1060.89 286.85" stroke="#F0F1F1" stroke-linecap="round" stroke-linejoin="round"/>
</g>
<g style="mix-blend-mode:overlay">
<path d="M408.37 490.12L412.6 503.75L414.72 518.34L414.64 534.02L412.67 539.73L407.69 546.07L400.59 552.83L399.46 571.21L391.2 578.84L390.97 586.88" stroke="#F0F1F1" stroke-linecap="round" stroke-linejoin="round"/>
</g>
<g style="mix-blend-mode:overlay">
<path d="M370.78 588.95L369.52 575.22L368.05 556.55L366.17 538.96L363.83 522.29L360.23 506.7L355.44 492L348.58 478.4L339.82 465.7L328.2 454.15L313.96 443.58L296.06 434.27L274.78 426.09L248.99 419.4L218.98 414.13L218.41 413.44L215.8 413L207.13 412.62L190.98 411.44L187.64 411.12" stroke="#F0F1F1" stroke-linecap="round" stroke-linejoin="round"/>
</g>
<g style="mix-blend-mode:overlay">
<path d="M513.08 212.99L505.89 217.74L492.53 223.31L475.96 229.16L455.98 235.4L433.84 241.99L413.81 252.06L392.91 262.65L371.06 273.85L348.89 285.62L326.5 298.01L299.66 309.11L272.5 320.88L250.91 335.75L224.64 349.1L198.98 363.07L180.91 380.42L158.03 395.86L143.83 414.53L125.14 431.17L116.03 450.79L109.38 470.57L106.04 489.93L105.19 509.08L107.56 527.34L112.14 545.03L119.45 561.4L128.37 576.91L129.39 578.2" stroke="#F0F1F1" stroke-linecap="round" stroke-linejoin="round"/>
</g>
<g style="mix-blend-mode:overlay">
<path d="M270.11 596.24L265.04 584.27L258.67 565.07L253.77 546.38L249.72 528.41L246.19 511.16L242.38 494.87L238.12 479.43L232.44 465.1L225.28 451.75L215.57 439.66L203.34 428.68L187.92 419.46L187.38 419.14L183.06 417.33" stroke="#F0F1F1" stroke-linecap="round" stroke-linejoin="round"/>
</g>
<g style="mix-blend-mode:overlay">
<path d="M1193.67 227.01L1186.81 216L1177.38 207.4L1163.95 202.08L1149.68 198.9L1133.36 198.7L1117.9 200.36L1102.39 204.67L1089.35 210.59L1078.16 218.9L1070.84 228.71L1066.95 240.81" stroke="#F0F1F1" stroke-linecap="round" stroke-linejoin="round"/>
</g>
<g style="mix-blend-mode:overlay">
<path d="M1057.15 -0.470215L1045.36 4.50978L1015.55 20.1398L992.92 35.7498L977.66 51.8998L970.89 68.0398L972.65 84.8498L987.91 100.2L994.73 107.07L1008.42 122.83L1015.66 131.17L1026.96 145.88L1027.33 146.32" stroke="#F0F1F1" stroke-linecap="round" stroke-linejoin="round"/>
</g>
<g style="mix-blend-mode:overlay">
<path d="M282.1 453.97L269.97 457.21L257.23 460.31L244.82 462.91L232.44 465.1L220.88 466.56L209.9 467.34L200.12 467.17L191.4 466.09L184.18 463.91L178.41 460.65" stroke="#F0F1F1" stroke-linecap="round" stroke-linejoin="round"/>
</g>
<g style="mix-blend-mode:overlay">
<path d="M178.07 425.56L176.27 427.33L175.5 428.61L174.07 432.65L171.3 437.68L167.15 445.2L166.17 445.24L159.94 453.97L155.23 462.77L149.5 473.51L148.09 476.88L141.04 493.7L134.8 514.55L132.05 535.48L132.83 556.51L138.31 576.86L141.59 583.32" stroke="#F0F1F1" stroke-linecap="round" stroke-linejoin="round"/>
</g>
<g style="mix-blend-mode:overlay">
<path d="M98.44 243.56L99.88 232.91L97.84 223.26L91.71 214.6L81.08 206.96L30.87 217.72L-0.339966 224.94" stroke="#F0F1F1" stroke-linecap="round" stroke-linejoin="round"/>
</g>
<g style="mix-blend-mode:overlay">
<path d="M1144.26 256.41L1139.36 247.19L1132.39 240.29L1122.01 236.54L1111.33 234.87L1099.26 236.09L1088.56 239.16L1078.44 244.86L1071.18 252.27L1066.2 262.16" stroke="#F0F1F1" stroke-linecap="round" stroke-linejoin="round"/>
</g>
<g style="mix-blend-mode:overlay">
<path d="M316.25 594.06L313.58 585.66L308.5 566.62L304.33 548.26L300.37 530.8L296.44 514.12L291.73 498.46L286.2 483.66L278.92 469.97L269.97 457.21L258.27 445.67L244.03 435.17L226.05 426.05L204.57 418.18L185.72 413.72" stroke="#F0F1F1" stroke-linecap="round" stroke-linejoin="round"/>
</g>
<g style="mix-blend-mode:overlay">
<path d="M254.91 596.48L251.29 588.81L244.24 569.37L238.97 550.38L235.02 531.94L231.71 514.29L228.71 497.4L225.16 481.52L220.88 466.56L214.86 452.76L207.01 440.01L196.63 429.04L196.21 428.59L184.39 419.83L184.14 419.65L182.43 418.69L180.97 419.72L190.16 427.72L190.75 428.53L198.96 439.75L205.49 452.93L209.9 467.34L213.19 482.74L215.62 499.21L218.07 516.52L220.9 534.68L224.82 553.48L230.33 572.8L237.95 592.44L239.86 596.09" stroke="#F0F1F1" stroke-linecap="round" stroke-linejoin="round"/>
</g>
<g style="mix-blend-mode:overlay">
<path d="M300.37 185.3L302.24 193.56L300.24 202.45L294.5 212.04L285.67 222.31L250.01 229.49L238.42 241.02L224.61 253.41L209.04 266.69L172.7 276.46L134.91 287.25L95.94 299.16L55.57 312.41L14.38 327.06L-0.339966 332.75" stroke="#F0F1F1" stroke-linecap="round" stroke-linejoin="round"/>
</g>
<g style="mix-blend-mode:overlay">
<path d="M435.12 171.8L437.96 179.25L436.9 187.07L431.69 195.37L423.35 204.08L411.65 213.33L397.55 223.08L380.93 233.46L362.61 244.45L342.6 256.16L321.6 268.59L299.75 281.81L270.62 291.26L241.19 301.26L211.51 311.85L181.83 323.04L152.02 334.94L122.47 347.53L92.93 360.99L64.02 375.26L35.5 390.59L8.25003 406.84L-0.339966 412.58" stroke="#F0F1F1" stroke-linecap="round" stroke-linejoin="round"/>
</g>
<g style="mix-blend-mode:overlay">
<path d="M1100.09 286.45L1097.35 279.09L1093.07 273.98L1086.02 271.91L1079.16 271.89L1071.54 274.72L1065.69 279.45L1061.16 286.44" stroke="#F0F1F1" stroke-linecap="round" stroke-linejoin="round"/>
</g>
<g style="mix-blend-mode:overlay">
<path d="M457.41 183.28L457.12 175.72L452.08 168.58L442.65 161.81L427.65 155.52L407.44 149.7L396.58 152.25L372.8 146.8L342.33 142.1L305.41 138.24L260.61 134.84L253.64 133.54L204.4 133.28L194.06 133.22L178.04 133.61L139.51 134.1L76.24 137.54L2.62003 142.06L1.30003 142.12L-0.339966 142.61" stroke="#F0F1F1" stroke-linecap="round" stroke-linejoin="round"/>
</g>
<g style="mix-blend-mode:overlay">
<path d="M358.55 590.21L357.45 582.94L354.87 563.97L352.56 545.88L349.77 528.82L346.45 512.65L341.8 497.54L335.87 483.33L327.74 470.22L317.62 458.04L304.46 447.04L288.54 437.06L268.73 428.42L245.35 420.99L217.16 415.16L192.94 412" stroke="#F0F1F1" stroke-linecap="round" stroke-linejoin="round"/>
</g>
<g style="mix-blend-mode:overlay">
<path d="M147.53 135.34L141.41 137.25L76.24 137.54L63.96 137.2L55.29 137.78L-0.339966 141.08" stroke="#F0F1F1" stroke-linecap="round" stroke-linejoin="round"/>
</g>
<g style="mix-blend-mode:overlay">
<path d="M1195.64 -0.470215L1193.9 5.25978L1183.65 35.4098L1148.93 44.2698L1116.08 54.9898L1087.43 66.4798L1062.76 79.4098L1043.97 92.8598L1031.03 107.52L1025.22 122.73L1038.73 149.51L1050.87 177.48L1056.5 194.37" stroke="#F0F1F1" stroke-linecap="round" stroke-linejoin="round"/>
</g>
<g style="mix-blend-mode:overlay">
<path d="M534.46 189.57L530.84 193.57L523.19 197.7L511 202.05L495.82 206.56L477.17 211.35L456.33 216.36L440.74 225.6L423.4 235.32L397.7 241.85L377.74 252.81L350.05 260.47L328.47 272.87L299.75 281.81L277.59 295.81L255.44 310.64L233.66 326.26L212.76 342.64L192.85 359.78L168.19 373.77L151.52 392.47L130.39 407.72L118.32 427.72L102.12 443.89L96.05 464.72L86.27 481.29L87.44 502.28L92.56 522.55L94.9 538.8L101.61 548.48L105.63 554.27L106.58 555.64L108.14 557.9L113.9 565.48L118.34 570.41L119.58 571.79L121.31 573.63L122.02 574.81L123.05 575.48" stroke="#F0F1F1" stroke-linecap="round" stroke-linejoin="round"/>
</g>
<g style="mix-blend-mode:overlay">
<path d="M525.55 177.11L522.05 180.41L513.68 183.89L501.97 187.49L486.36 191.3L479.54 199.25L469.14 207.62L456.33 216.36L432.91 221.72L407.89 227.38L390.09 237.77L362.61 244.45L333.72 251.61L303.86 259.25L272.91 267.46L252.82 281.35L232.22 296.14L211.51 311.85L191.28 328.45L171.74 345.96L153.67 364.26L137.09 383.38L122.9 403.07L102.67 418.32L94.04 439.12L79.29 455.16L77.73 476.46L70.1 492.67L76.92 513.66L78.01 529.17L83.81 543.58L94.16 557.27L110.8 568.76L121.31 573.63L122.28 573.71L122.95 573.89L123.61 574.8L124.15 575.64L126.76 577.22" stroke="#F0F1F1" stroke-linecap="round" stroke-linejoin="round"/>
</g>
<g style="mix-blend-mode:overlay">
<path d="M530.66 180.25L528.79 183.72L521.81 187.37L511.32 191.14L496.77 195.11L488.68 203.03L477.17 211.35L463.44 220.03L440.74 225.6L416.39 231.48L390.09 237.77L370.83 248.77L342.6 256.16L313.53 264.01L283.53 272.4L262.51 286.39L241.19 301.26L219.93 317.01L199.31 333.62L179.52 351.09L161.3 369.3L144.63 388.26L122.9 403.07L110.93 423.37L94.04 439.12L88.25 460.29L77.73 476.46L79.54 497.81L76.92 513.66L84.38 528.31L87.42 534.28L95.85 545.43L101.25 552.57L102.12 553.71L110.11 562.03L113.69 565L116.72 567.05L119.35 569.03L122.95 573.89L123.44 575.15L124.34 575.92L125.24 576.13L126.08 576.6" stroke="#F0F1F1" stroke-linecap="round" stroke-linejoin="round"/>
</g>
<g style="mix-blend-mode:overlay">
<path d="M384.19 142.58L380.81 144.53L372.8 146.8L359.74 149.46L342.6 152.48L320.95 155.98L295.61 159.96L266.16 164.57L244.11 159.11L215.61 154.59L180.74 151.03L138.25 148.75L88.21 147.83L59.16 153.23L25.36 159.6L-0.339966 164.58" stroke="#F0F1F1" stroke-linecap="round" stroke-linejoin="round"/>
</g>
<g style="mix-blend-mode:overlay">
<path d="M1123.17 -0.470215L1119.8 0.599785L1083.66 13.8598L1083.64 13.8698L1051.65 28.2898L1025.83 42.9298L1006.29 58.3698L994.45 73.9398L990.37 90.2998L994.73 107.07L1006.08 123.55L1007.39 125L1017.39 135.7L1026.96 145.88L1027.33 146.32L1036.06 156.57L1042.52 165.94" stroke="#F0F1F1" stroke-linecap="round" stroke-linejoin="round"/>
</g>
<g style="mix-blend-mode:overlay">
<path d="M401.86 585.58L403.89 582.88L406.3 563.86L410.86 557.05L413.04 550.74L414.64 534.02" stroke="#F0F1F1" stroke-linecap="round" stroke-linejoin="round"/>
</g>
<g style="mix-blend-mode:overlay">
<path d="M518.54 170.73L517.62 173.75L512.62 176.9L502.97 180.21L490.06 183.66L473.38 187.33L454.08 191.2L446.8 199.55L436.65 208.32L423.35 217.6L407.89 227.38L380.93 233.46L352.7 239.94L322.96 246.92L292.08 254.42L259.94 262.54L241.05 276.28L221.44 290.93L201.5 306.52L181.83 323.04L162.72 340.51L144.93 358.82L128.55 378L114.5 397.82L102.67 418.32L84.78 433.75L79.29 455.16L67.68 471.07L70.1 492.67L66.43 508.34L75.19 524.1L78.01 529.17L88.32 541.77L94.09 548.83L104.63 558.9L109.72 563.76L111.73 565.41L114.16 566.65L117.1 569.93L119.4 572.41L121.21 575.03L126.68 578.15" stroke="#F0F1F1" stroke-linecap="round" stroke-linejoin="round"/>
</g>
<g style="mix-blend-mode:overlay">
<path d="M462.86 154.25L460.77 156.55L453.64 159.08L442.65 161.81L427.32 164.82L414.84 158.26L396.58 152.25L381.74 155.08L362.47 158.31L339.66 161.93L312.86 166.08L282.77 170.77L266.16 164.57L233.25 169.83L196.51 175.94L175.57 170.4L148.36 165.88L108.72 172.91L64.85 181.12L17.21 190.56L-0.339966 194.28" stroke="#F0F1F1" stroke-linecap="round" stroke-linejoin="round"/>
</g>
<g style="mix-blend-mode:overlay">
<path d="M481.05 157.78L480.67 160.18L475.15 162.8L465.79 165.57L452.08 168.58L435.12 171.8L427.32 164.82L408.66 168.08L386.23 171.71L360.8 175.72L331.99 180.24L300.37 185.3L293.89 177.72L282.77 170.77L249 176.17L212.06 182.33L171.64 189.44L128.03 197.58L81.08 206.96L65.47 200.35L14.77 211.08L-0.339966 214.52" stroke="#F0F1F1" stroke-linecap="round" stroke-linejoin="round"/>
</g>
<g style="mix-blend-mode:overlay">
<path d="M525.52 203.65L523.94 205.45L517.58 210.1L506.3 215.4L491.19 220.8L473.23 226.45L452.16 232.48L433.84 241.99L409.4 249.04L383.62 256.5L361.97 268.04L339.8 280.22L317.21 293.1L294.68 306.65L272.5 320.88L245.36 333.27L218.79 346.24L198.98 363.07L174.65 377.51L158.03 395.86L137.27 411.59L125.14 431.17L109.35 447.85L102.98 468.21L100.1 488.24L94.13 505.8L92.56 522.55L97.51 534.57L100.74 542.42L106 550.76L109.49 555.35L112.44 560.96L112.48 561.05L116.78 567.2L121.59 573.22" stroke="#F0F1F1" stroke-linecap="round" stroke-linejoin="round"/>
</g>
<g style="mix-blend-mode:overlay">
<path d="M380.03 588L381.58 586.79L381.08 567.5L380.22 549.34L378.95 532.14L376.51 516.03L372.93 500.85L367.4 486.75L360.05 473.55L349.98 461.47L337.41 450.34L321.36 440.4L302.11 431.54L278.58 424.06L251.07 417.9L250.33 416.68L247.32 416.1L234.71 415.37L219.84 413.64L218.69 413.79L217.16 415.16L214.16 416.18L209.56 417.31L186.52 412.65" stroke="#F0F1F1" stroke-linecap="round" stroke-linejoin="round"/>
</g>
<g style="mix-blend-mode:overlay">
<path d="M-0.339966 154.21L1.39003 154.13L59.16 153.23L108.64 154L149.86 156.3L184.21 159.78L211.65 164.36L233.25 169.83L249 176.17L259.76 183.24L265.6 191.06L267.23 199.56L264.82 208.8L258.99 218.75L250.01 229.49L212.31 237.5L172.55 246.47L130.64 256.56L86.79 267.91L40.79 280.75L33.03 295.06L23.86 310.54L14.38 327.06L4.76003 344.73L-0.339966 346.92" stroke="#F0F1F1" stroke-linecap="round" stroke-linejoin="round"/>
</g>
<g style="mix-blend-mode:overlay">
<path d="M168.19 589.96L167.35 588.49L160.39 567.84L156.87 547.16L156.6 526.53L158.58 506.42L162.4 486.91L167.1 468.31L172.09 450.68L176.51 434.19L178.06 426.61" stroke="#F0F1F1" stroke-linecap="round" stroke-linejoin="round"/>
</g>
<g style="mix-blend-mode:overlay">
<path d="M1119.85 -0.470215L1119.8 0.599785L1118.59 26.9598L1116.08 54.9898L1113.42 83.7698L1109.15 114.12L1104.35 145.13L1097.41 177.6L1089.35 210.59L1079.42 241.79L1078.44 244.86L1066.79 276.48L1065.69 279.45L1060.09 291.62L1058.36 295.36L1055.47 301.63" stroke="#F0F1F1" stroke-linecap="round" stroke-linejoin="round"/>
</g>
<g style="mix-blend-mode:overlay">
<path d="M381.63 587.84L381.58 586.79L391.2 578.84L391.45 560.06L400.59 552.83L400.67 535.64L399.71 519.43L396.98 504.32L392.56 490.14L385.66 477.04L376.44 464.86L364.06 453.78L348.72 443.7L329.5 434.84" stroke="#F0F1F1" stroke-linecap="round" stroke-linejoin="round"/>
</g>
<g style="mix-blend-mode:overlay">
<path d="M345.12 591.58L344.91 590.68L341.32 571.33L338.1 552.92L335.09 535.34L331.52 518.78L327.36 503.08L321.73 488.46L314.74 474.72L305.41 462.12L293.94 450.46L279.24 440.04L261.59 430.7L239.79 422.79L214.16 416.18L187.07 411.9" stroke="#F0F1F1" stroke-linecap="round" stroke-linejoin="round"/>
</g>
<g style="mix-blend-mode:overlay">
<path d="M225.53 595.73L225.12 595L216.98 575.2L211.35 555.59L207.62 536.41L205.21 517.85L203.6 500.03L202.04 483.13L200.12 467.17L196.94 452.34L192.2 438.6L185.37 427.02L184.86 426.17L180.36 421.19L180.59 420.42L181 419.75L182.21 418.23L182.62 417.92" stroke="#F0F1F1" stroke-linecap="round" stroke-linejoin="round"/>
</g>
<g style="mix-blend-mode:overlay">
<path d="M-0.339966 143.91L1.35003 143.84L66.91 140.97L129.58 139.91L182.75 140.7L228.14 142.89L265.67 146.32L296.66 150.71L320.95 155.98L339.66 161.93L352.61 168.55L360.8 175.72L364.11 183.47L363.41 191.74L358.67 200.59L350.69 210L339.49 220.06L325.82 230.77L309.81 242.22L292.08 254.42L272.91 267.46L241.05 276.28L208.3 285.79L174.62 296.1L140.22 307.28L104.9 319.49L69.12 332.78L32.65 347.4L-0.339966 361.82" stroke="#F0F1F1" stroke-linecap="round" stroke-linejoin="round"/>
</g>
<g style="mix-blend-mode:overlay">
<path d="M98.44 243.56L54.2 254.49L50.55 255.39L0.400032 268.82L-0.339966 269.03" stroke="#F0F1F1" stroke-linecap="round" stroke-linejoin="round"/>
</g>
<g style="mix-blend-mode:overlay">
<path d="M152.82 586.86L144.45 584.79L141.64 583.43L136.98 581.89L136.93 581.87L135.64 581.46L133.43 580.61L129.43 579.05L128.54 578.86L127.58 578.07L126.95 577.79L126.81 577.09L126.44 576.71L126.08 576.6L125.13 575.96L124.43 575.5L122.02 574.81L109.94 569.34L98.1 562.48L80.44 552.24L71.09 538.31L66.39 533.32L52.41 518.47L53.8 502.84L45.45 481.55L55.83 465.41L56.54 443.8L61.32 422.23L69.11 401.21L80.01 380.67L92.93 360.99L107.81 342.1L123.64 324.22L140.22 307.28L156.66 291.38L172.7 276.46L187.59 262.54L201 249.56L238.42 241.02L273.97 233.34L307.72 226.37L339.49 220.06L369.51 214.28L397.35 208.99L423.35 204.08L446.8 199.55L468.14 195.29L486.36 191.3L490.06 183.66L489.4 176.38L484.85 169.4L475.15 162.8L460.77 156.55L440.44 150.78L439.68 148.48L433.3 147.09L415.14 144.64L411.64 144.19L410.09 143.94L397.09 142.45L394.85 142.19" stroke="#F0F1F1" stroke-linecap="round" stroke-linejoin="round"/>
</g>
<g style="mix-blend-mode:overlay">
<path d="M157.12 589.4L147.26 587.25L143.55 585.71L138.85 583.39L137.44 583.11L136.88 583.16L130.37 580.64L128.52 579.36L116.35 575.98L102.31 570.43L78.14 560.87L63.98 547.77L55.76 533.34L52.41 518.47L38.8 497.48L45.45 481.55L41.85 459.75L42.08 438.12L46.4 416.58L53.71 395.65L64.02 375.26L76.23 355.77L90.2 337.11L104.9 319.49L120.11 302.83L134.91 287.25L149.03 272.66L187.59 262.54L224.61 253.41L259.98 245.14L293.68 237.64L325.82 230.77L356.16 224.49L384.94 218.68L411.65 213.33L436.65 208.32L459.14 203.66L479.54 199.25L496.77 195.11L501.97 187.49L502.97 180.21L500.33 173.21L492.71 166.54L480.67 160.18L462.86 154.25L442.72 149.47L440.11 149.78L436.55 153.01L427.65 155.52L414.84 158.26L397.68 161.33L377.08 164.72L352.61 168.55L325.01 172.83L293.89 177.72L259.76 183.24L222.34 189.57L181.92 196.8L138.34 205.1L91.71 214.6L42.02 225.5L30.87 217.72L14.77 211.08L-0.339966 207.27" stroke="#F0F1F1" stroke-linecap="round" stroke-linejoin="round"/>
</g>
<g style="mix-blend-mode:overlay">
<path d="M911.14 60.3198L882.12 46.7798L879.47 45.5898L869.39 41.3798L858.83 36.8698L846.45 31.6398L818.81 16.8898L801.29 2.07979L800.16 -0.470215" stroke="#F0F1F1" stroke-linecap="round" stroke-linejoin="round"/>
</g>
<g style="mix-blend-mode:overlay">
<path d="M972.64 96.4498L952.34 83.5098L942.72 77.3798L931.94 71.1798L911.67 60.0798L909 57.4098L890.58 43.4598L878.8 27.2298L877.23 11.0898L857.42 -0.470215" stroke="#F0F1F1" stroke-linecap="round" stroke-linejoin="round"/>
</g>
<g style="mix-blend-mode:overlay">
<path d="M931.94 71.1798L925.59 67.5298L912.2 59.8398L908.84 58.1198L881.37 44.0598L861.19 28.1498L831.45 14.4598L801.29 2.07979L794.18 -0.470215" stroke="#F0F1F1" stroke-linecap="round" stroke-linejoin="round"/>
</g>
<g style="mix-blend-mode:overlay">
<path d="M120.73 575.59L114.75 573.02L95.43 564.7L80.44 552.24L73.99 547.31L55.76 533.34L51.46 529.06L35.81 513.52L21.19 492.56" stroke="#F0F1F1" stroke-linecap="round" stroke-linejoin="round"/>
</g>
<g style="mix-blend-mode:overlay">
<path d="M882.12 46.7798L879.47 45.5898L871.97 41.5198L850.16 29.6898L818.81 16.8898L787.18 5.36979L768.86 -0.470215" stroke="#F0F1F1" stroke-linecap="round" stroke-linejoin="round"/>
</g>
<g style="mix-blend-mode:overlay">
<path d="M116.07 569.84L114.42 568.41L111.73 565.41L102.12 553.71L94.9 538.8L91.7 531.86L85.54 518.52" stroke="#F0F1F1" stroke-linecap="round" stroke-linejoin="round"/>
</g>
<g style="mix-blend-mode:overlay">
<path d="M314.16 313.26L309.95 315.5L306.18 317.49L290.85 325.63L283.8 330.26L270.59 338.66L263.73 342.76L246.94 352.78L240.11 357.06L222.97 367.81L217.53 371.5L199.71 383.6L193.75 388.01L177.29 400.17L172.61 404.06L156.8 417.23L138.14 434.84L122.44 452.58L109.38 470.57L100.1 488.24L99.93 508.14L103.21 527.2L106.2 536.87L108.95 545.76L117.66 563.04L125.33 575.88" stroke="#F0F1F1" stroke-linecap="round" stroke-linejoin="round"/>
</g>
<g style="mix-blend-mode:overlay">
<path d="M237.78 363.49L227.31 370.81L212 381.28L205.2 386.57L190.47 398.04L176.4 410.21L170.28 415.51L164.84 420.79L151.48 433.75L147.56 438.26L135.33 452.33L131.09 458.24L121.66 471.35L118.97 476.47L111.74 490.22L109.27 497.32L105.19 509.08L103.21 527.2L105.3 544.82L109.62 554.59" stroke="#F0F1F1" stroke-linecap="round" stroke-linejoin="round"/>
</g>
<g style="mix-blend-mode:overlay">
<path d="M183.87 412.42L179.3 415.76L178.06 415.69L165.59 428.11L161.53 432.78L149.18 446.99L144.96 452.7L134.71 466.56L132.02 471.3L123.53 486.29L120.93 492.73L115.45 506.29L111.78 525.81L112.14 545.03L116.58 562.95L119.19 568" stroke="#F0F1F1" stroke-linecap="round" stroke-linejoin="round"/>
</g>
<g style="mix-blend-mode:overlay">
<path d="M136.94 581.88L136.27 581.67L135.52 581.3L133.41 580.87L129.51 579.28L129.26 578.14L128.66 578.33L127.63 578.29L127.45 577.87L127.13 577.25L126.86 576.97L126.44 576.71L125.43 576.05L124.06 575.87L123 575.94L110.8 568.76L108 565.91L94.16 557.27L86.94 551.33L71.09 538.31L66.4 523.79L66.43 508.34L58.83 487.15L67.68 471.07L68.83 449.57L84.78 433.75L93.19 412.79L104.81 392.19L118.63 372.33L134.68 353.18L152.02 334.94L170.53 317.58L189.38 301.21L208.3 285.79L226.66 271.33L244.05 257.8L259.98 245.14L273.97 233.34L285.67 222.31L319.16 215.86L350.69 210L379.89 204.71L407.1 199.83L431.69 195.37L454.08 191.2L457.41 183.28L475.26 179.71L489.4 176.38L500.33 173.21L506.75 170.21L509.66 166.83L513.76 167.9L517.94 170.19L518.59 170.54" stroke="#F0F1F1" stroke-linecap="round" stroke-linejoin="round"/>
</g>
<g style="mix-blend-mode:overlay">
<path d="M153.32 586.95L146.4 584.81L144.75 584.29L140.92 583.69L137.44 583.11L133.48 580.99L129.69 578.59L128.79 578.04L127.2 577.6L124.13 575.79L122.7 573.39L119.38 570.7L114.42 568.41L105.24 562.53L97.05 555.29L83.81 543.58L78.6 537.65L66.4 523.79L63.82 519.49L53.8 502.84L58.83 487.15L55.83 465.41L68.83 449.57L73.99 428.03L82.13 407L93.46 386.39L106.91 366.59L122.47 347.53L139.17 329.44L156.83 312.26L174.62 296.1L192.26 280.91L209.04 266.69L244.05 257.8L277.66 249.67L309.81 242.22L340.62 235.34L369.78 229L397.55 223.08L423.35 217.6L447.5 212.44L459.14 203.66L468.14 195.29L473.38 187.33L475.26 179.71L472.59 172.48L465.79 165.57L453.64 159.08L436.55 153.01L413.29 147.49L407.44 149.7L380.81 144.53L348.05 140.07L308.56 136.13L304.95 135.38L280.97 134.52L276.22 134.35L260.57 134.64L208.36 134.05L205.58 135.59L197.21 137.77L182.75 140.7L163.28 144.3L138.25 148.75L108.64 154L73.85 160.29L34.75 167.6L-0.339966 174.46" stroke="#F0F1F1" stroke-linecap="round" stroke-linejoin="round"/>
</g>
<g style="mix-blend-mode:overlay">
<path d="M180.58 419.38L179.02 420.32L175.27 423.8L173.75 424.08L163.81 437.31L159.62 442.89L149.23 456.69L146.54 461.08L137.02 476.6L134.42 482.06L127.24 497.1L125.95 501.51L121.24 517.57L118.86 538.08L121.35 557.8L128.37 576.91" stroke="#F0F1F1" stroke-linecap="round" stroke-linejoin="round"/>
</g>
<g style="mix-blend-mode:overlay">
<path d="M177.34 424.75L175.69 427.32L171.12 435.44L168.15 445.24L165.1 454.03L157.28 472.79L150.35 492.5L145.42 512.82L142.82 533.71L143.7 554.63L148.16 575.54L153.32 586.95" stroke="#F0F1F1" stroke-linecap="round" stroke-linejoin="round"/>
</g>
<g style="mix-blend-mode:overlay">
<path d="M167.13 445.25L162.81 453.63L157.5 463.96L156.13 467.15L149.05 483.55L142.19 503.96L138.11 524.74L137.01 545.86L140.06 566.66L146.4 584.81" stroke="#F0F1F1" stroke-linecap="round" stroke-linejoin="round"/>
</g>
<g style="mix-blend-mode:overlay">
<path d="M413.04 550.74L412.31 554.89L409.86 568.68L408.12 575.47L403.89 582.88L403.57 585.3" stroke="#F0F1F1" stroke-linecap="round" stroke-linejoin="round"/>
</g>
<g style="mix-blend-mode:overlay">
<path d="M183.91 409.87L179.21 415.72L172.67 423.86L168.43 428.77L156.47 442.61L152.27 448.22L141.81 462.19L139.12 466.74L130.02 482.12L127.4 488.07L121.05 502.47L116.24 522.55L115.3 542.49L119.45 561.4L127.71 576.98L129.26 578.14" stroke="#F0F1F1" stroke-linecap="round" stroke-linejoin="round"/>
</g>
<g style="mix-blend-mode:overlay">
<path d="M207.92 389.01L196.45 400.73L195.81 401.38L188.95 409.34L187.43 411.1L187.39 411.27L187.02 411.89L185.96 412.54L184.02 414.61L183.61 415.97L182.73 417.19L182.21 418.23L182.32 418.37L180.35 419.44L179.25 420.58L179.77 421.87L179.86 422.13L178.9 423.11L178.04 424.85L178.02 426.34L175.93 429.29L171.12 435.44L168.36 440.01L166.17 445.24L165.1 454.03L165.18 461.73L167.1 468.31L170.92 473.65L176.44 477.79L183.54 480.72L192.18 482.45L202.04 483.13L213.19 482.74L225.16 481.52L238.12 479.43L251.41 476.78L265.27 473.51L278.92 469.97L292.6 466.06L305.41 462.12L317.62 458.04L328.2 454.15L337.41 450.34L344.18 446.88L348.72 443.7L349.96 441.05" stroke="#F0F1F1" stroke-linecap="round" stroke-linejoin="round"/>
</g>
<g style="mix-blend-mode:overlay">
<path d="M1064.7 222.77L1064.67 222.62L1063.3 214.73L1059.23 191.59L1051.34 162.28L1058.24 148.12L1051.52 120L1043.97 92.8598L1035.1 67.3998L1025.83 42.9298L1015.55 20.1398L1005.59 -0.470215" stroke="#F0F1F1" stroke-linecap="round" stroke-linejoin="round"/>
</g>
<g style="mix-blend-mode:overlay">
<path d="M124.31 575.15L123.61 574.8L122.3 573.88L119.19 571.39L116.09 570.39L105.24 562.53L94.09 548.83L87.42 534.28L85.54 518.53L85.53 518.5L79.54 497.81L86.27 481.29L88.25 460.29L102.12 443.89L110.93 423.37L130.39 407.72L144.63 388.26L168.19 373.77L186.45 355.75L206.36 338.4L227.19 321.86L248.79 306.14L270.62 291.26L292.32 277.23L321.6 268.59L350.05 260.47L370.83 248.77L397.7 241.85L416.39 231.48L432.91 221.72L447.5 212.44L469.14 207.62L488.68 203.03L504.92 198.71L518.35 194.55L527.52 190.6L533.19 185.98L532.95 183.14" stroke="#F0F1F1" stroke-linecap="round" stroke-linejoin="round"/>
</g>
<g style="mix-blend-mode:overlay">
<path d="M401.36 477.54L402.29 480.58L398.61 485.43L392.56 490.14L383.69 495.36L372.93 500.85L360.23 506.7L346.45 512.65L331.52 518.78L316.19 524.81L300.37 530.8L284.66 536.42L268.99 541.71L253.77 546.38L238.97 550.38L224.82 553.48L211.35 555.59L198.62 556.57L186.79 556.28L175.77 554.69L165.85 551.61L156.87 547.16L149.28 541.11L142.82 533.71L138.11 524.74L134.8 514.55L133.61 502.94L134.1 490.35L137.02 476.6L141.81 462.19L149.18 446.99L158.47 431.45L170.28 415.51L183.88 399.57L199.71 383.6L217.05 367.89L236.14 352.46L256.34 337.49L277.68 323.01L299.66 309.11L322.07 295.84L344.61 283.18L366.83 271.18L388.65 259.79L409.4 249.04L429.17 238.83L447.09 229.2L469.05 223.4L483.45 214.81L495.82 206.56L504.92 198.71L511.32 191.14L513.68 183.89L512.62 176.9L506.75 170.21L496.69 163.81L481.05 157.78L463.9 153.11L460.34 152.13L451.97 150.35L445.43 149.36L439.69 148.52L433.3 147.09L415.14 144.64L410.09 143.94L400.27 142.67L394.85 142.19L381.56 140.83L378.58 140.71L352.21 138.6L348.03 139.28L342.33 142.1L331.92 144.5L316.38 147.39L296.66 150.71L272.3 154.62L244.11 159.11L211.65 164.36L175.57 170.4L135.47 177.43L91.81 185.51L44.3 194.87L-0.339966 204.27" stroke="#F0F1F1" stroke-linecap="round" stroke-linejoin="round"/>
</g>
<g style="mix-blend-mode:overlay">
<path d="M506.24 164.67L509.53 166.89L517.62 173.75L522.05 180.41L521.81 187.37L518.35 194.55L511 202.05L501.13 209.82L488.13 217.96L473.23 226.45L455.98 235.4L437.42 244.77L417.26 254.68L396.34 265.08L374.56 276.05L352.53 287.56L330.37 299.64L308.44 312.24L287.07 325.34L266.41 338.89L246.94 352.78L228.6 366.98L212 381.28L197.55 396.25L196.55 398.33L184.63 410.38L184.74 411.53L184.66 412.91L184.63 414.79L183.69 416L182.45 417.08L181.85 418.27L181 419.75L179.82 420.79L179.12 421.69L178.58 423.01L178.09 424.73L179.63 429.75L182.33 433.65L186.46 436.63L192.2 438.6L198.96 439.75L207.01 440.01L215.57 439.66L225 438.58L234.36 437.13L244.03 435.17L252.98 433.07L261.59 430.7L268.73 428.42L274.78 426.09L278.58 424.06L280.85 421.79L303.37 425.92L306.84 426.78L330.26 434.1L350.19 440.55L352.48 441.06L362.15 445.76L362.23 445.8L366.46 447.87L367.09 450.52L380.51 461.15L391.08 472.76L398.61 485.43L403.91 499.03L406.82 513.7L408.11 529.32L400.67 535.64L391.35 542.29L380.22 549.34L368.05 556.55L354.87 563.97L341.32 571.33L327.4 578.65L313.58 585.66L299.84 592.33L293.69 595.13" stroke="#F0F1F1" stroke-linecap="round" stroke-linejoin="round"/>
</g>
<g style="mix-blend-mode:overlay">
<path d="M1065.69 264.63L1065.99 262.59L1067.61 251.99L1070.84 228.71L1072.48 196.66L1072.52 165.35L1070.38 135.6L1067.34 106.69L1062.76 79.4098L1057.78 53.0198L1051.65 28.2898L1045.36 4.50978L1043.71 -0.470215" stroke="#F0F1F1" stroke-linecap="round" stroke-linejoin="round"/>
</g>
<g style="mix-blend-mode:overlay">
<path d="M135.65 581.48L133.65 581L131.71 580.41L130.79 579.92L129.23 579.25L128.02 579.08L116.35 575.98L95.43 564.7L85.05 559.12L63.98 547.77L58.06 543.54L37.7 528.98L33.64 525.21L16.45 509.24L0.750031 488.35L-0.339966 486.24" stroke="#F0F1F1" stroke-linecap="round" stroke-linejoin="round"/>
</g>
<g style="mix-blend-mode:overlay">
<path d="M526.16 203.15L525.8 203.34L517.2 207.86L504.64 212.77L488.13 217.96L469.05 223.4L452.16 232.48L429.17 238.83L404.06 245.63L383.62 256.5L356.42 264.46L328.47 272.87L306.19 286.04L283.76 299.95L261.47 314.65L239.65 330.09L218.79 346.24L192.85 359.78L174.65 377.51L151.52 392.47L137.27 411.59L118.32 427.72L109.35 447.85L96.05 464.72L93.62 485.29L94.13 505.8L98.34 525.54L102.22 536.29L105.3 544.82L109.43 552.13L112.37 557.32L116.58 562.95L126.39 576.64" stroke="#F0F1F1" stroke-linecap="round" stroke-linejoin="round"/>
</g>
<g style="mix-blend-mode:overlay">
<path d="M176.88 427.56L176.09 430.68L171.69 444.02L171.22 445.3L165.18 461.73L158.85 480.5L153.68 500.09L150.13 520.43L149.28 541.11L151.38 562.07L157.5 582.69L160.35 588.38" stroke="#F0F1F1" stroke-linecap="round" stroke-linejoin="round"/>
</g>
<g style="mix-blend-mode:overlay">
<path d="M531.7 196.26L530.16 198.17L529.91 198.68L526.16 203.15L523.54 205.49L517.58 210.1L514.57 212.5L506.73 216.31L492.53 223.31L477.76 232.13L472.34 235.64L459.11 241.11L440.78 249.2L420.36 259.47L414.25 262.94L399.45 269.94L394.24 272.45L378.29 280.13L373.38 282.57L357 290.74L335.81 301.77L314.56 313.21L300.86 321.13L293.58 325.44L274.96 337.2L255.19 350.64L237.78 363.49L222.1 376.29L212 384.84L202.82 392.61L190.72 406.1L187.04 411.15L186.79 411.85L186.31 412.61L185.55 413.55L184.02 414.61L182.23 416.98L182.31 418.29L182.35 418.38L181.35 420.05L180.55 421.4L179.79 422.04L179.02 422.51L178.9 423.11L178.83 423.98L178.69 424.2L178.46 424.57L178.36 425.16L177.96 425.37L176.77 427.86L176.51 434.19L177.2 439.93L179.75 444.59L183.94 448.22L189.81 450.75L196.94 452.34L205.49 452.93L214.86 452.76L225.28 451.75L235.99 450.23L247.3 448.08L258.27 445.67L269.27 442.87L279.24 440.04L288.54 437.06L296.06 434.27L302.11 431.54L305.56 429.19L326.9 437.39L344.18 446.88L358.4 457.41L369.29 469.07L377.79 481.68L383.69 495.36L387.85 509.96L390.14 525.65L391.35 542.29L391.45 560.06L381.08 567.5L369.52 575.22L357.45 582.94L344.91 590.68L343.03 591.8" stroke="#F0F1F1" stroke-linecap="round" stroke-linejoin="round"/>
</g>
<g style="mix-blend-mode:overlay">
<path d="M409.86 568.68L408.36 575.06L406.37 584.86" stroke="#F0F1F1" stroke-linecap="round" stroke-linejoin="round"/>
</g>
<g style="mix-blend-mode:overlay">
<path d="M531.7 196.26L530.78 196.94L525.83 200.57L515.11 205.1L501.13 209.82L483.45 214.81L463.44 220.03L447.09 229.2L423.4 235.32L404.06 245.63L377.74 252.81L356.42 264.46L334.46 276.77L311.95 289.82L289.4 303.59L267.11 318.08L245.36 333.27L224.64 349.1L205.01 365.54L187.13 382.42L170.8 399.75L156.8 417.23L144.71 434.9L135.33 452.33L128.01 469.64L123.53 486.29L121.05 502.47L121.24 517.57L123.15 531.85L127.33 544.73L132.83 556.51L140.06 566.66L148.16 575.54L157.5 582.69L167.35 588.49L174.57 591.25" stroke="#F0F1F1" stroke-linecap="round" stroke-linejoin="round"/>
</g>
<g style="mix-blend-mode:overlay">
<path d="M143.13 586.36L126.63 582.77L98.73 572.88L78.14 560.87L68.77 556.19L44.71 544.14L39.08 540.39L16.77 525.53L-0.339966 510.69" stroke="#F0F1F1" stroke-linecap="round" stroke-linejoin="round"/>
</g>
<g style="mix-blend-mode:overlay">
<path d="M142.78 585.66L126.63 582.77L107.91 578.24L78.47 571.11L66.75 567.22L35.25 556.76L26.71 553.1L-0.339966 541.5" stroke="#F0F1F1" stroke-linecap="round" stroke-linejoin="round"/>
</g>
<g style="mix-blend-mode:overlay">
<path d="M391.67 465.9L393.32 468.61L401.86 481.15L407.72 494.31L411.41 508.4L406.82 513.7L399.71 519.43L390.14 525.65L378.95 532.14L366.17 538.96L352.56 545.88L338.1 552.92L323.42 559.83L308.5 566.62L293.77 573.01L279.21 578.97L265.04 584.27L251.29 588.81L237.95 592.44L225.12 595L219.97 595.59" stroke="#F0F1F1" stroke-linecap="round" stroke-linejoin="round"/>
</g>
<g style="mix-blend-mode:overlay">
<path d="M878.9 45.2798L873.18 42.8798L858.83 36.8698L846.45 31.6398L843.43 30.5098L814.07 19.5298L787.18 5.36979L780.44 -0.470215" stroke="#F0F1F1" stroke-linecap="round" stroke-linejoin="round"/>
</g>
<g style="mix-blend-mode:overlay">
<path d="M196.88 395.68L191.42 400.5L179.81 410.51L177.15 413.12L171.57 418.6L158.47 431.45L154.5 436.01L142.11 450.27L137.87 456.09L128.01 469.64L125.32 474.6L117.49 489.01L114.95 495.85L110.26 508.49L107.56 527.34L108.95 545.76L115.5 562.85L119.22 568.13L122.5 572.64" stroke="#F0F1F1" stroke-linecap="round" stroke-linejoin="round"/>
</g>
<g style="mix-blend-mode:overlay">
<path d="M196.45 400.73L188.89 409.43L187.64 411.12L187.52 411.29L187.07 411.9L186.52 412.65L185.69 413.71L184 414.6L181.33 416.61L180.35 419.44L180.18 421.19L179.72 422.06L179.42 423.29L179.33 423.53L180.31 424.05L184.86 426.17L190.16 427.72L196.21 428.59L203.34 428.68L210.67 428.29L218.58 427.3L234.36 437.13L247.3 448.08L257.23 460.31L265.27 473.51L271.34 487.87L276.44 503.1L280.59 519.36L284.66 536.42L288.81 554.38L293.77 573.01L299.84 592.33L300.81 594.79" stroke="#F0F1F1" stroke-linecap="round" stroke-linejoin="round"/>
</g>
<g style="mix-blend-mode:overlay">
<path d="M195.81 401.38L190.72 406.1L186.03 410.97L185.46 411.64" stroke="#F0F1F1" stroke-linecap="round" stroke-linejoin="round"/>
</g>
</g>
</svg>
